<svg width="36" height="37" viewBox="0 0 36 37" fill="none" xmlns="http://www.w3.org/2000/svg">
<rect y="0.5" width="36" height="36" rx="18" fill="#DCC29D"/>
<path d="M28.1408 17.9893C28.1408 23.4457 23.6836 27.8689 18.1843 27.8689C16.4385 27.8689 14.7984 27.4227 13.3715 26.6396L7.85913 28.3913L9.65631 23.0906C8.74972 21.6019 8.22758 19.8559 8.22758 17.9893C8.22758 12.5328 12.6853 8.10962 18.1843 8.10962C23.684 8.10962 28.1408 12.5328 28.1408 17.9893ZM18.1843 9.68303C13.5682 9.68303 9.81338 13.4092 9.81338 17.9893C9.81338 19.8067 10.4058 21.4899 11.408 22.8591L10.3621 25.944L13.579 24.9216C14.9007 25.7894 16.484 26.2955 18.1845 26.2955C22.8 26.2955 26.5555 22.5698 26.5555 17.9897C26.5555 13.4097 22.8002 9.68303 18.1843 9.68303ZM23.2121 20.2647C23.1506 20.1639 22.9881 20.1031 22.7443 19.9821C22.5 19.8611 21.2998 19.2749 21.0767 19.1945C20.8529 19.1138 20.6898 19.0732 20.5273 19.3155C20.3648 19.558 19.897 20.1031 19.7543 20.2647C19.6119 20.4267 19.4697 20.447 19.2254 20.3257C18.9816 20.2047 18.1954 19.9487 17.2631 19.1239C16.5377 18.4821 16.0478 17.6898 15.9053 17.4471C15.7631 17.2048 15.8905 17.0739 16.0124 16.9533C16.1223 16.8447 16.2567 16.6705 16.3786 16.5292C16.5009 16.3877 16.5415 16.287 16.6224 16.1252C16.7042 15.9636 16.6634 15.8223 16.6021 15.7008C16.5413 15.5798 16.0527 14.3882 15.8494 13.9032C15.6462 13.4187 15.4431 13.4994 15.3005 13.4994C15.1583 13.4994 14.9954 13.4791 14.8327 13.4791C14.6699 13.4791 14.4054 13.5397 14.1816 13.782C13.9581 14.0244 13.3278 14.6104 13.3278 15.8018C13.3278 16.9935 14.2019 18.1448 14.3243 18.3061C14.4462 18.4675 16.0121 20.9923 18.4933 21.962C20.9746 22.9313 20.9746 22.6079 21.4222 22.5673C21.8693 22.527 22.8658 21.9816 23.0699 21.4164C23.2728 20.8504 23.2728 20.3656 23.2121 20.2647Z" fill="white"/>
</svg>
