<svg width="35" height="35" viewBox="0 0 35 35" fill="none" xmlns="http://www.w3.org/2000/svg">
<g clip-path="url(#clip0_1_258)">
<path d="M17.4999 34.9998C27.1648 34.9998 34.9998 27.1648 34.9998 17.4999C34.9998 7.83497 27.1648 0 17.4999 0C7.83497 0 0 7.83497 0 17.4999C0 27.1648 7.83497 34.9998 17.4999 34.9998Z" fill="#5E5E5E"/>
<path d="M23.92 11.0855L9.7471 16.3803C8.77986 16.7567 8.78545 17.2794 9.56964 17.5125L13.2084 18.6122L21.6274 13.4661C22.0255 13.2314 22.3892 13.3577 22.0903 13.6148L15.2692 19.5787L15.0182 23.2131C15.3859 23.2131 15.5482 23.0497 15.7544 22.8569L17.5218 21.1919L21.1982 23.8226C21.876 24.1843 22.3628 23.9984 22.5315 23.2147L24.9448 12.196C25.1918 11.2365 24.5667 10.802 23.92 11.0855Z" fill="white"/>
</g>
<defs>
<clipPath id="clip0_1_258">
<rect width="35" height="35" fill="white"/>
</clipPath>
</defs>
</svg>
