<svg width="35" height="35" viewBox="0 0 35 35" fill="none" xmlns="http://www.w3.org/2000/svg">
<g clip-path="url(#clip0_1_252)">
<path d="M17.4999 34.9998C27.1648 34.9998 34.9998 27.1648 34.9998 17.4999C34.9998 7.83497 27.1648 0 17.4999 0C7.83497 0 0 7.83497 0 17.4999C0 27.1648 7.83497 34.9998 17.4999 34.9998Z" fill="#5E5E5E"/>
<path d="M24.4195 18.0222C24.0812 17.6559 24.1769 17.4918 24.4195 17.1635C24.4229 17.1606 27.2254 13.8404 27.5159 12.7121H27.5193C27.6628 12.3018 27.5193 12 26.8255 12H24.5289C23.9445 12 23.6745 12.2579 23.5309 12.548C23.5309 12.548 22.3621 14.9481 20.708 16.5013C20.1749 16.9496 19.9288 17.0932 19.6349 17.0932C19.4913 17.0932 19.2692 16.9496 19.2692 16.5394V12.7121C19.2692 12.2198 19.1051 12 18.6233 12H15.0109C14.6452 12 14.4264 12.2286 14.4264 12.4425C14.4264 12.9085 15.2535 13.0169 15.3389 14.3298V17.1782C15.3389 17.8024 15.2057 17.9167 14.9152 17.9167C14.136 17.9167 12.2392 15.5078 11.1182 12.7502C10.8926 12.2139 10.6705 12 10.0827 12H7.78605C7.12987 12 7 12.2579 7 12.548C7 13.0608 7.77921 15.6045 10.6295 18.9629C12.5297 21.2575 15.2022 22.5 17.6322 22.5C19.0949 22.5 19.2726 22.2245 19.2726 21.7498C19.2726 19.5578 19.1393 19.3497 19.8741 19.3497C20.2125 19.3497 20.7969 19.4933 22.1639 20.601C23.7223 21.9139 23.9786 22.5 24.8535 22.5H27.1502C27.8029 22.5 28.1379 22.2245 27.9465 21.6795C27.5022 20.5366 24.5528 18.1804 24.4195 18.0222Z" fill="white"/>
</g>
<defs>
<clipPath id="clip0_1_252">
<rect width="35" height="35" fill="white"/>
</clipPath>
</defs>
</svg>
