<svg width="35" height="35" viewBox="0 0 35 35" fill="none" xmlns="http://www.w3.org/2000/svg">
<g clip-path="url(#clip0_1_255)">
<path d="M17.4999 34.9998C27.1648 34.9998 34.9998 27.1648 34.9998 17.4999C34.9998 7.83497 27.1648 0 17.4999 0C7.83497 0 0 7.83497 0 17.4999C0 27.1648 7.83497 34.9998 17.4999 34.9998Z" fill="#5E5E5E"/>
<path d="M24.7286 12.9203C22.1856 8.99986 16.9937 7.83432 12.9673 10.2714C9.04686 12.7084 7.77536 18.0063 10.3183 21.9267L10.5303 22.2446L9.68261 25.4234L12.8613 24.5757L13.1792 24.7876C14.5567 25.5293 16.0401 25.9532 17.5235 25.9532C19.1129 25.9532 20.7022 25.5293 22.0797 24.6817C26.0001 22.1387 27.1657 16.9467 24.7286 12.9203ZM22.5035 21.0791C22.0797 21.7148 21.5499 22.1387 20.8082 22.2446C20.3844 22.2446 19.8546 22.4565 17.7354 21.6089C15.9341 20.7612 14.4507 19.3838 13.3911 17.7944C12.7554 17.0527 12.4375 16.0991 12.3315 15.1454C12.3315 14.2978 12.6494 13.5561 13.1792 13.0263C13.3911 12.8144 13.603 12.7084 13.815 12.7084H14.3447C14.5567 12.7084 14.7686 12.7084 14.8745 13.1322C15.0865 13.662 15.6162 14.9335 15.6162 15.0395C15.7222 15.1454 15.7222 15.3574 15.6162 15.4633C15.7222 15.6752 15.6162 15.8871 15.5103 15.9931C15.4043 16.0991 15.2984 16.311 15.1924 16.4169C14.9805 16.5229 14.8745 16.7348 14.9805 16.9467C15.4043 17.5825 15.9341 18.2182 16.4639 18.748C17.0997 19.2778 17.7354 19.7016 18.4771 20.0195C18.689 20.1255 18.9009 20.1255 19.0069 19.9135C19.1129 19.7016 19.6426 19.1718 19.8546 18.9599C20.0665 18.748 20.1724 18.748 20.3844 18.854L22.0797 19.7016C22.2916 19.8076 22.5035 19.9135 22.6095 20.0195C22.7154 20.3374 22.7154 20.7612 22.5035 21.0791Z" fill="white"/>
</g>
<defs>
<clipPath id="clip0_1_255">
<rect width="35" height="35" fill="white"/>
</clipPath>
</defs>
</svg>
