<svg width="45" height="45" viewBox="0 0 45 45" fill="none" xmlns="http://www.w3.org/2000/svg">
<rect x="1" y="1" width="43" height="43" rx="21.5" stroke="#DCC29D" stroke-width="2"/>
<path d="M16 19C17.6569 19 19 17.6569 19 16C19 14.3431 17.6569 13 16 13C14.3431 13 13 14.3431 13 16C13 17.6569 14.3431 19 16 19Z" stroke="#DCC29D" stroke-width="2" stroke-linecap="round" stroke-linejoin="round"/>
<path d="M16 31C17.6569 31 19 29.6569 19 28C19 26.3431 17.6569 25 16 25C14.3431 25 13 26.3431 13 28C13 29.6569 14.3431 31 16 31Z" stroke="#DCC29D" stroke-width="2" stroke-linecap="round" stroke-linejoin="round"/>
<path d="M30 14L18.12 25.88" stroke="#DCC29D" stroke-width="2" stroke-linecap="round" stroke-linejoin="round"/>
<path d="M24.47 24.48L30 30" stroke="#DCC29D" stroke-width="2" stroke-linecap="round" stroke-linejoin="round"/>
<path d="M18.12 18.1201L22 22.0001" stroke="#DCC29D" stroke-width="2" stroke-linecap="round" stroke-linejoin="round"/>
</svg>
