<svg width="20" height="20" viewBox="0 0 20 20" fill="none" xmlns="http://www.w3.org/2000/svg">
<circle cx="10" cy="10" r="10" fill="#979797"/>
<path fill-rule="evenodd" clip-rule="evenodd" d="M14.2791 13.2373C14.3542 13.0439 14.4436 12.7533 14.468 12.2181C14.4945 11.6393 14.5 11.4657 14.5 10C14.5 8.53437 14.4944 8.36074 14.468 7.78199C14.4436 7.2468 14.3542 6.95617 14.279 6.76278C14.191 6.52433 14.0507 6.30866 13.8684 6.1316C13.6913 5.94935 13.4757 5.80906 13.2373 5.72103C13.0438 5.6459 12.7533 5.55645 12.2181 5.53208C11.6392 5.50561 11.4657 5.5 10 5.5C8.5344 5.5 8.36077 5.50561 7.78202 5.53199C7.24681 5.55645 6.95618 5.64582 6.76279 5.72103C6.52434 5.80897 6.30866 5.94926 6.1316 6.1316C5.94935 6.30866 5.80898 6.52433 5.72095 6.76278C5.64582 6.95617 5.55645 7.2468 5.53199 7.78199C5.50561 8.36083 5.5 8.53437 5.5 10.0001C5.5 11.4657 5.50561 11.6393 5.53199 12.2181C5.55637 12.7533 5.64582 13.0439 5.72095 13.2373C5.80898 13.4758 5.94927 13.6913 6.1316 13.8684C6.30866 14.0507 6.52434 14.191 6.76271 14.2791C6.95618 14.3542 7.24682 14.4436 7.78193 14.468C8.36069 14.4945 8.53423 14.5 10 14.5C11.4658 14.5 11.6394 14.4945 12.2181 14.468C12.7533 14.4436 13.0439 14.3542 13.2373 14.2791C13.716 14.0944 14.0944 13.7161 14.2791 13.2373ZM9.99996 7.1813C8.44327 7.1813 7.18132 8.44332 7.18132 10C7.18132 11.5567 8.44327 12.8186 9.99996 12.8186C11.5567 12.8186 12.8187 11.5567 12.8187 10C12.8187 8.44332 11.5567 7.1813 9.99996 7.1813ZM12.9301 7.72864C13.2938 7.72864 13.5887 7.43374 13.5887 7.06999C13.5887 6.70615 13.2938 6.41125 12.9301 6.41125C12.5662 6.41125 12.2713 6.70615 12.2713 7.06999C12.2713 7.43374 12.5662 7.72864 12.9301 7.72864Z" fill="white"/>
<path d="M8.17039 9.99991C8.17031 11.0104 8.98952 11.8295 9.99996 11.8296C11.0105 11.8296 11.8297 11.0104 11.8297 9.99991C11.8297 8.98949 11.0106 8.17036 10 8.17028C8.98952 8.17028 8.17039 8.98949 8.17039 9.99991Z" fill="white"/>
</svg>
