<svg width="20" height="20" viewBox="0 0 20 20" fill="none" xmlns="http://www.w3.org/2000/svg">
<circle cx="10" cy="10" r="10" fill="#979797"/>
<path d="M14.9028 12.5576C14.9028 12.5161 14.8613 12.5161 14.8613 12.4746C14.6952 12.1425 14.3216 11.7274 13.8235 11.2708C13.5744 11.0632 13.4499 10.8972 13.3668 10.8141C13.2423 10.6481 13.2423 10.5236 13.2838 10.3575C13.3253 10.233 13.4914 10.0254 13.7819 9.65182C13.948 9.44427 14.031 9.31974 14.1556 9.1952C14.7782 8.36497 15.0688 7.82532 14.9858 7.57625L14.9443 7.53474C14.9028 7.49323 14.8612 7.45172 14.7782 7.45172C14.6952 7.41021 14.5707 7.41021 14.4461 7.45172H12.8687C12.8272 7.45172 12.8272 7.45172 12.7442 7.45172C12.7027 7.45172 12.6611 7.45172 12.6611 7.45172H12.6196H12.5781L12.5366 7.49323C12.4951 7.53474 12.4951 7.53474 12.4951 7.57625C12.329 8.03288 12.1215 8.40648 11.9139 8.8216C11.7894 9.02915 11.6649 9.23671 11.5403 9.40276C11.4158 9.56881 11.3328 9.69334 11.2497 9.77636C11.1667 9.85938 11.0837 9.90089 11.0422 9.98392C11.0007 10.0254 10.9177 10.0669 10.9177 10.0254C10.8762 10.0254 10.8346 10.0254 10.8346 9.98392C10.7931 9.94241 10.7516 9.90089 10.7101 9.85938C10.6686 9.81787 10.6686 9.73485 10.6271 9.65182C10.6271 9.5688 10.6271 9.48578 10.6271 9.44427C10.6271 9.40276 10.6271 9.27822 10.6271 9.1952C10.6271 9.07067 10.6271 8.98764 10.6271 8.94613C10.6271 8.8216 10.6271 8.65555 10.6271 8.48951C10.6271 8.32346 10.6271 8.19892 10.6271 8.1159C10.6271 8.03288 10.6271 7.90835 10.6271 7.82532C10.6271 7.70079 10.6271 7.61776 10.6271 7.57625C10.6271 7.53474 10.5856 7.45172 10.5856 7.41021C10.5441 7.3687 10.5025 7.32718 10.461 7.28567C10.4195 7.24416 10.3365 7.24416 10.295 7.20265C10.0874 7.16114 9.83837 7.11963 9.54779 7.11963C8.88361 7.11963 8.42698 7.16114 8.26093 7.24416C8.17791 7.28568 8.09488 7.32718 8.05337 7.41021C7.97035 7.49323 7.97035 7.53474 8.01186 7.53474C8.21942 7.57626 8.38546 7.65927 8.46849 7.78381L8.51 7.86684C8.55151 7.90835 8.55151 7.99137 8.59302 8.1159C8.63453 8.24044 8.63453 8.36497 8.63453 8.53102C8.63453 8.78008 8.63453 9.02916 8.63453 9.1952C8.63453 9.40276 8.59302 9.52729 8.59302 9.65182C8.59302 9.77636 8.55151 9.85938 8.51 9.9009C8.46849 9.98392 8.46849 10.0254 8.42697 10.0254C8.42697 10.0254 8.42697 10.0669 8.38546 10.0669C8.34395 10.0669 8.30244 10.1085 8.21942 10.1085C8.1779 10.1085 8.09488 10.0669 8.05337 10.0254C7.97035 9.98392 7.88733 9.9009 7.84582 9.81787C7.76279 9.73485 7.67977 9.61031 7.59674 9.44427C7.51372 9.27822 7.38918 9.11218 7.30616 8.86311L7.22314 8.69707C7.18163 8.61404 7.09861 8.44799 7.01559 8.24044C6.93256 8.03288 6.84954 7.86684 6.76652 7.65928C6.725 7.57626 6.6835 7.53474 6.64199 7.49323H6.60047C6.60047 7.49323 6.55896 7.45172 6.51744 7.45172C6.47593 7.45172 6.43443 7.41021 6.39291 7.41021H4.8985C4.73245 7.41021 4.64943 7.45172 4.60792 7.49323L4.56641 7.53474C4.56641 7.53474 4.56641 7.57625 4.56641 7.61777C4.56641 7.65928 4.56641 7.70079 4.60792 7.78381C4.81548 8.28195 5.06455 8.78009 5.31361 9.27822C5.56268 9.73485 5.81175 10.15 5.9778 10.4405C6.18536 10.7311 6.3514 11.0217 6.55896 11.2708C6.76652 11.5198 6.89105 11.6859 6.93256 11.7689C7.01558 11.8519 7.05709 11.8934 7.0986 11.935L7.22314 12.0595C7.30617 12.1425 7.4307 12.267 7.59674 12.3916C7.76279 12.5161 7.97035 12.6406 8.1779 12.7652C8.38546 12.8897 8.63453 12.9727 8.8836 13.0558C9.17418 13.1388 9.42325 13.1803 9.67232 13.1388H10.295C10.4195 13.1388 10.5026 13.0973 10.5856 13.0143L10.6271 12.9727C10.6271 12.9312 10.6686 12.9312 10.6686 12.8897C10.6686 12.8482 10.6686 12.8067 10.6686 12.7237C10.6686 12.5576 10.6686 12.4331 10.7101 12.3086C10.7516 12.184 10.7516 12.101 10.7931 12.018C10.8346 11.935 10.8762 11.8934 10.9177 11.8519C10.9592 11.8104 11.0007 11.7689 11.0007 11.7689H11.0422C11.1252 11.7274 11.2498 11.7689 11.3328 11.8519C11.4573 11.935 11.5818 12.0595 11.6649 12.184C11.7479 12.3086 11.8724 12.4331 12.0385 12.5991C12.2045 12.7652 12.3291 12.8897 12.4121 12.9312L12.5366 13.0143C12.6196 13.0558 12.7027 13.0973 12.8272 13.1388C12.9517 13.1803 13.0347 13.1803 13.1178 13.1803L14.5292 13.1388C14.6537 13.1388 14.7782 13.0973 14.8613 13.0558C14.9443 13.0143 14.9858 12.9727 14.9858 12.8897C14.9858 12.8482 14.9858 12.7652 14.9858 12.7237C14.9028 12.6407 14.9028 12.5991 14.9028 12.5576Z" fill="white"/>
</svg>
